REM DIRINDEX 1\2,1\4,1\5,1\6,1\7,1\3\8,1\3\9,1\3\10
REM DIRNAME folder01,folder02,folder03,folder04,folder05,folder06,folder07,folder08,folder09,folder10
TITLE ""
FILE "DB4500_5th_0A_02.mp3" MP3
  TRACK 01 AUDIO
    TITLE "7:cjc113_0001"
    INDEX 01 00:00:00
  TRACK 02 AUDIO
    TITLE "2:cjc113_0002"
    INDEX 01 00:05:24
  TRACK 03 AUDIO
    TITLE "0:"
    INDEX 01 00:06:47
  TRACK 04 AUDIO
    TITLE "2:cjc113_0003"
    INDEX 01 00:07:13
  TRACK 05 AUDIO
    TITLE "0:"
    INDEX 01 00:08:24
  TRACK 06 AUDIO
    TITLE "2:cjc113_0004"
    INDEX 01 00:08:26
  TRACK 07 AUDIO
    TITLE "0:"
    INDEX 01 00:09:51
  TRACK 08 AUDIO
    TITLE "2:cjc113_0005"
    INDEX 01 00:09:55
  TRACK 09 AUDIO
    TITLE "0:"
    INDEX 01 00:10:66
  TRACK 10 AUDIO
    TITLE "2:cjc113_0006"
    INDEX 01 00:11:31
  TRACK 11 AUDIO
    TITLE "0:"
    INDEX 01 00:12:14
  TRACK 12 AUDIO
    TITLE "2:cjc113_0007"
    INDEX 01 00:12:54
  TRACK 13 AUDIO
    TITLE "0:"
    INDEX 01 00:13:61
  TRACK 14 AUDIO
    TITLE "2:cjc113_0008"
    INDEX 01 00:13:63
  TRACK 15 AUDIO
    TITLE "0:"
    INDEX 01 00:14:70
  TRACK 16 AUDIO
    TITLE "2:cjc113_0009"
    INDEX 01 00:14:72
  TRACK 17 AUDIO
    TITLE "0:"
    INDEX 01 00:16:06
  TRACK 18 AUDIO
    TITLE "2:cjc113_0010"
    INDEX 01 00:16:48
  TRACK 19 AUDIO
    TITLE "0:"
    INDEX 01 00:17:37
  TRACK 20 AUDIO
    TITLE "2:cjc113_0011"
    INDEX 01 00:18:03
  TRACK 21 AUDIO
    TITLE "0:"
    INDEX 01 00:19:03
  TRACK 22 AUDIO
    TITLE "2:cjc113_0012"
    INDEX 01 00:19:09
  TRACK 23 AUDIO
    TITLE "0:"
    INDEX 01 00:20:24
  TRACK 24 AUDIO
    TITLE "2:cjc113_0013"
    INDEX 01 00:20:26
  TRACK 25 AUDIO
    TITLE "0:"
    INDEX 01 00:21:47
  TRACK 26 AUDIO
    TITLE "2:cjc113_0014"
    INDEX 01 00:22:13
  TRACK 27 AUDIO
    TITLE "0:"
    INDEX 01 00:23:18
  TRACK 28 AUDIO
    TITLE "2:cjc113_0015"
    INDEX 01 00:23:57
  TRACK 29 AUDIO
    TITLE "0:"
    INDEX 01 00:24:57
  TRACK 30 AUDIO
    TITLE "2:cjc113_0016"
    INDEX 01 00:24:63
  TRACK 31 AUDIO
    TITLE "0:"
    INDEX 01 00:25:72
  TRACK 32 AUDIO
    TITLE "2:cjc113_0017"
    INDEX 01 00:26:03
  TRACK 33 AUDIO
    TITLE "0:"
    INDEX 01 00:27:12
  TRACK 34 AUDIO
    TITLE "2:cjc113_0018"
    INDEX 01 00:27:53
  TRACK 35 AUDIO
    TITLE "0:"
    INDEX 01 00:28:70
  TRACK 36 AUDIO
    TITLE "2:cjc113_0019"
    INDEX 01 00:29:33
  TRACK 37 AUDIO
    TITLE "0:"
    INDEX 01 00:30:44
  TRACK 38 AUDIO
    TITLE "2:cjc113_0020"
    INDEX 01 00:30:48
  TRACK 39 AUDIO
    TITLE "0:"
    INDEX 01 00:31:65
  TRACK 40 AUDIO
    TITLE "2:cjc113_0021"
    INDEX 01 00:31:71
  TRACK 41 AUDIO
    TITLE "0:"
    INDEX 01 00:33:11
  TRACK 42 AUDIO
    TITLE "2:cjc113_0022"
    INDEX 01 00:33:54
  TRACK 43 AUDIO
    TITLE "0:"
    INDEX 01 00:34:49
  TRACK 44 AUDIO
    TITLE "2:cjc113_0023"
    INDEX 01 00:35:15
  TRACK 45 AUDIO
    TITLE "0:"
    INDEX 01 00:36:21
  TRACK 46 AUDIO
    TITLE "2:cjc113_0024"
    INDEX 01 00:36:23
  TRACK 47 AUDIO
    TITLE "0:"
    INDEX 01 00:37:28
  TRACK 48 AUDIO
    TITLE "2:cjc113_0025"
    INDEX 01 00:37:30
  TRACK 49 AUDIO
    TITLE "0:"
    INDEX 01 00:38:37
  TRACK 50 AUDIO
    TITLE "2:cjc113_0026"
    INDEX 01 00:39:03
  TRACK 51 AUDIO
    TITLE "0:"
    INDEX 01 00:40:15
  TRACK 52 AUDIO
    TITLE "2:cjc113_0027"
    INDEX 01 00:40:52
  TRACK 53 AUDIO
    TITLE "0:"
    INDEX 01 00:41:71
  TRACK 54 AUDIO
    TITLE "2:cjc113_0028"
    INDEX 01 00:42:00
  TRACK 55 AUDIO
    TITLE "0:"
    INDEX 01 00:43:17
  TRACK 56 AUDIO
    TITLE "2:cjc113_0029"
    INDEX 01 00:43:21
  TRACK 57 AUDIO
    TITLE "0:"
    INDEX 01 00:44:30
  TRACK 58 AUDIO
    TITLE "2:cjc113_0030"
    INDEX 01 00:44:71
  TRACK 59 AUDIO
    TITLE "0:"
    INDEX 01 00:46:02
  TRACK 60 AUDIO
    TITLE "2:cjc113_0031"
    INDEX 01 00:46:41
  TRACK 61 AUDIO
    TITLE "0:"
    INDEX 01 00:47:54
  TRACK 62 AUDIO
    TITLE "2:cjc113_0032"
    INDEX 01 00:47:56
  TRACK 63 AUDIO
    TITLE "0:"
    INDEX 01 00:48:65
  TRACK 64 AUDIO
    TITLE "2:cjc113_0033"
    INDEX 01 00:48:67
  TRACK 65 AUDIO
    TITLE "0:"
    INDEX 01 00:50:07
  TRACK 66 AUDIO
    TITLE "2:cjc113_0034"
    INDEX 01 00:50:46
  TRACK 67 AUDIO
    TITLE "0:"
    INDEX 01 00:51:56
  TRACK 68 AUDIO
    TITLE "2:cjc113_0035"
    INDEX 01 00:52:22
  TRACK 69 AUDIO
    TITLE "0:"
    INDEX 01 00:53:39
  TRACK 70 AUDIO
    TITLE "2:cjc113_0036"
    INDEX 01 00:53:41
  TRACK 71 AUDIO
    TITLE "0:"
    INDEX 01 00:54:54
  TRACK 72 AUDIO
    TITLE "2:cjc113_0037"
    INDEX 01 00:54:60
  TRACK 73 AUDIO
    TITLE "0:"
    INDEX 01 00:56:02
  TRACK 74 AUDIO
    TITLE "2:cjc113_0038"
    INDEX 01 00:56:43
  TRACK 75 AUDIO
    TITLE "0:"
    INDEX 01 00:57:52
  TRACK 76 AUDIO
    TITLE "2:cjc113_0039"
    INDEX 01 00:58:15
  TRACK 77 AUDIO
    TITLE "0:"
    INDEX 01 00:59:26
  TRACK 78 AUDIO
    TITLE "2:cjc113_0040"
    INDEX 01 00:59:28
  TRACK 79 AUDIO
    TITLE "0:"
    INDEX 01 01:00:51
  TRACK 80 AUDIO
    TITLE "2:cjc113_0041"
    INDEX 01 01:00:53
  TRACK 81 AUDIO
    TITLE "0:"
    INDEX 01 01:01:66
  TRACK 82 AUDIO
    TITLE "2:cjc113_0042"
    INDEX 01 01:02:32
  TRACK 83 AUDIO
    TITLE "0:"
    INDEX 01 01:03:33
  TRACK 84 AUDIO
    TITLE "2:cjc113_0043"
    INDEX 01 01:04:00
  TRACK 85 AUDIO
    TITLE "0:"
    INDEX 01 01:05:05
  TRACK 86 AUDIO
    TITLE "2:cjc113_0044"
    INDEX 01 01:05:09
  TRACK 87 AUDIO
    TITLE "0:"
    INDEX 01 01:06:10
  TRACK 88 AUDIO
    TITLE "2:cjc113_0045"
    INDEX 01 01:06:12
  TRACK 89 AUDIO
    TITLE "0:"
    INDEX 01 01:07:25
  TRACK 90 AUDIO
    TITLE "2:cjc113_0046"
    INDEX 01 01:07:64
  TRACK 91 AUDIO
    TITLE "0:"
    INDEX 01 01:08:50
  TRACK 92 AUDIO
    TITLE "2:cjc113_0047"
    INDEX 01 01:09:12
  TRACK 93 AUDIO
    TITLE "0:"
    INDEX 01 01:10:30
  TRACK 94 AUDIO
    TITLE "2:cjc113_0048"
    INDEX 01 01:10:33
  TRACK 95 AUDIO
    TITLE "0:"
    INDEX 01 01:11:51
  TRACK 96 AUDIO
    TITLE "2:cjc113_0049"
    INDEX 01 01:11:52
  TRACK 97 AUDIO
    TITLE "0:"
    INDEX 01 01:12:73
  TRACK 98 AUDIO
    TITLE "2:cjc113_0050"
    INDEX 01 01:13:36
  TRACK 99 AUDIO
    TITLE "0:"
    INDEX 01 01:14:57
  TRACK 100 AUDIO
    TITLE "2:cjc113_0051"
    INDEX 01 01:15:23
  TRACK 101 AUDIO
    TITLE "0:"
    INDEX 01 01:16:18
  TRACK 102 AUDIO
    TITLE "2:cjc113_0052"
    INDEX 01 01:16:30
  TRACK 103 AUDIO
    TITLE "0:"
    INDEX 01 01:17:43
  TRACK 104 AUDIO
    TITLE "2:cjc113_0053"
    INDEX 01 01:17:45
  TRACK 105 AUDIO
    TITLE "0:"
    INDEX 01 01:18:64
  TRACK 106 AUDIO
    TITLE "2:cjc113_0054"
    INDEX 01 01:19:30
  TRACK 107 AUDIO
    TITLE "0:"
    INDEX 01 01:20:18
  TRACK 108 AUDIO
    TITLE "2:cjc113_0055"
    INDEX 01 01:20:61
  TRACK 109 AUDIO
    TITLE "0:"
    INDEX 01 01:21:74
  TRACK 110 AUDIO
    TITLE "2:cjc113_0056"
    INDEX 01 01:22:01
  TRACK 111 AUDIO
    TITLE "0:"
    INDEX 01 01:23:05
  TRACK 112 AUDIO
    TITLE "2:cjc113_0057"
    INDEX 01 01:23:09
  TRACK 113 AUDIO
    TITLE "0:"
    INDEX 01 01:24:12
  TRACK 114 AUDIO
    TITLE "2:cjc113_0058"
    INDEX 01 01:24:53
  TRACK 115 AUDIO
    TITLE "0:"
    INDEX 01 01:25:29
  TRACK 116 AUDIO
    TITLE "2:cjc113_0059"
    INDEX 01 01:25:70
  TRACK 117 AUDIO
    TITLE "0:"
    INDEX 01 01:27:04
  TRACK 118 AUDIO
    TITLE "2:cjc113_0060"
    INDEX 01 01:27:08
  TRACK 119 AUDIO
    TITLE "0:"
    INDEX 01 01:28:14
  TRACK 120 AUDIO
    TITLE "2:cjc113_0061"
    INDEX 01 01:28:18
  TRACK 121 AUDIO
    TITLE "0:"
    INDEX 01 01:29:33
  TRACK 122 AUDIO
    TITLE "2:cjc113_0062"
    INDEX 01 01:29:74
  TRACK 123 AUDIO
    TITLE "0:"
    INDEX 01 01:31:06
  TRACK 124 AUDIO
    TITLE "2:cjc113_0063"
    INDEX 01 01:31:47
  TRACK 125 AUDIO
    TITLE "0:"
    INDEX 01 01:32:60
  TRACK 126 AUDIO
    TITLE "2:cjc113_0064"
    INDEX 01 01:32:64
  TRACK 127 AUDIO
    TITLE "0:"
    INDEX 01 01:34:14
  TRACK 128 AUDIO
    TITLE "2:cjc113_0065"
    INDEX 01 01:34:16
  TRACK 129 AUDIO
    TITLE "0:"
    INDEX 01 01:35:24
  TRACK 130 AUDIO
    TITLE "2:cjc113_0066"
    INDEX 01 01:35:63
  TRACK 131 AUDIO
    TITLE "0:"
    INDEX 01 01:36:66
  TRACK 132 AUDIO
    TITLE "2:cjc113_0067"
    INDEX 01 01:37:32
  TRACK 133 AUDIO
    TITLE "0:"
    INDEX 01 01:38:36
  TRACK 134 AUDIO
    TITLE "2:cjc113_0068"
    INDEX 01 01:38:42
  TRACK 135 AUDIO
    TITLE "0:"
    INDEX 01 01:39:47
  TRACK 136 AUDIO
    TITLE "2:cjc113_0069"
    INDEX 01 01:39:51
  TRACK 137 AUDIO
    TITLE "0:"
    INDEX 01 01:40:62
  TRACK 138 AUDIO
    TITLE "2:cjc113_0070"
    INDEX 01 01:41:28
  TRACK 139 AUDIO
    TITLE "0:"
    INDEX 01 01:42:30
  TRACK 140 AUDIO
    TITLE "2:cjc113_0071"
    INDEX 01 01:42:71
  TRACK 141 AUDIO
    TITLE "0:"
    INDEX 01 01:44:03
  TRACK 142 AUDIO
    TITLE "2:cjc113_0072"
    INDEX 01 01:44:09
  TRACK 143 AUDIO
    TITLE "0:"
    INDEX 01 01:45:18
  TRACK 144 AUDIO
    TITLE "2:cjc113_0073"
    INDEX 01 01:45:20
  TRACK 145 AUDIO
    TITLE "0:"
    INDEX 01 01:46:35
  TRACK 146 AUDIO
    TITLE "2:cjc113_0074"
    INDEX 01 01:47:01
  TRACK 147 AUDIO
    TITLE "0:"
    INDEX 01 01:47:72
  TRACK 148 AUDIO
    TITLE "2:cjc113_0075"
    INDEX 01 01:48:38
  TRACK 149 AUDIO
    TITLE "0:"
    INDEX 01 01:49:41
  TRACK 150 AUDIO
    TITLE "2:cjc113_0076"
    INDEX 01 01:49:47
  TRACK 151 AUDIO
    TITLE "0:"
    INDEX 01 01:50:49
  TRACK 152 AUDIO
    TITLE "2:cjc113_0077"
    INDEX 01 01:50:51
  TRACK 153 AUDIO
    TITLE "0:"
    INDEX 01 01:51:60
  TRACK 154 AUDIO
    TITLE "2:cjc113_0078"
    INDEX 01 01:52:26
  TRACK 155 AUDIO
    TITLE "0:"
    INDEX 01 01:53:23
  TRACK 156 AUDIO
    TITLE "2:cjc113_0079"
    INDEX 01 01:53:63
  TRACK 157 AUDIO
    TITLE "0:"
    INDEX 01 01:54:68
  TRACK 158 AUDIO
    TITLE "2:cjc113_0080"
    INDEX 01 01:54:70
  TRACK 159 AUDIO
    TITLE "0:"
    INDEX 01 01:56:02
  TRACK 160 AUDIO
    TITLE "2:cjc113_0081"
    INDEX 01 01:56:06
  TRACK 161 AUDIO
    TITLE "0:"
    INDEX 01 01:57:17
  TRACK 162 AUDIO
    TITLE "2:cjc113_0082"
    INDEX 01 01:57:58
  TRACK 163 AUDIO
    TITLE "0:"
    INDEX 01 01:58:60
  TRACK 164 AUDIO
    TITLE "2:cjc113_0083"
    INDEX 01 01:59:28
  TRACK 165 AUDIO
    TITLE "0:"
    INDEX 01 02:00:35
  TRACK 166 AUDIO
    TITLE "2:cjc113_0084"
    INDEX 01 02:00:37
  TRACK 167 AUDIO
    TITLE "0:"
    INDEX 01 02:01:45
  TRACK 168 AUDIO
    TITLE "2:cjc113_0085"
    INDEX 01 02:01:46
  TRACK 169 AUDIO
    TITLE "0:"
    INDEX 01 02:02:56
  TRACK 170 AUDIO
    TITLE "2:cjc113_0086"
    INDEX 01 02:03:24
  TRACK 171 AUDIO
    TITLE "0:"
    INDEX 01 02:04:23
  TRACK 172 AUDIO
    TITLE "2:cjc113_0087"
    INDEX 01 02:04:62
  TRACK 173 AUDIO
    TITLE "0:"
    INDEX 01 02:05:68
  TRACK 174 AUDIO
    TITLE "2:cjc113_0088"
    INDEX 01 02:05:70
  TRACK 175 AUDIO
    TITLE "0:"
    INDEX 01 02:07:00
  TRACK 176 AUDIO
    TITLE "2:cjc113_0089"
    INDEX 01 02:07:06
  TRACK 177 AUDIO
    TITLE "0:"
    INDEX 01 02:08:17
  TRACK 178 AUDIO
    TITLE "2:cjc113_0090"
    INDEX 01 02:08:60
  TRACK 179 AUDIO
    TITLE "0:"
    INDEX 01 02:09:66
  TRACK 180 AUDIO
    TITLE "2:cjc113_0091"
    INDEX 01 02:10:30
  TRACK 181 AUDIO
    TITLE "0:"
    INDEX 01 02:11:35
  TRACK 182 AUDIO
    TITLE "2:cjc113_0092"
    INDEX 01 02:11:39
  TRACK 183 AUDIO
    TITLE "0:"
    INDEX 01 02:12:50
  TRACK 184 AUDIO
    TITLE "2:cjc113_0093"
    INDEX 01 02:12:52
  TRACK 185 AUDIO
    TITLE "0:"
    INDEX 01 02:13:65
